<?xml version="1.0" encoding="utf-8"?>
<!-- Generator: Adobe Illustrator 25.0.0, SVG Export Plug-In . SVG Version: 6.00 Build 0)  -->
<svg version="1.1" id="Camada_1" xmlns="http://www.w3.org/2000/svg" xmlns:xlink="http://www.w3.org/1999/xlink" x="0px" y="0px"
	 viewBox="0 0 202.1 51.3" style="enable-background:new 0 0 202.1 51.3;" xml:space="preserve">
<style type="text/css">
	.st0{fill:#FFFFFF;}
	.st1{fill:#87CE00;}
	.st2{fill:#1E9FBE;}
</style>
<g>
	<g>
		<g>
			<g>
				<path class="st0" d="M76.7,30.9c0.1,0,0.2,0,0.4,0.1c0.1,0,0.2,0.1,0.3,0.2l2,2.1c-0.9,1.2-2,2-3.3,2.6
					c-1.3,0.6-2.9,0.9-4.7,0.9c-1.7,0-3.2-0.3-4.5-0.8c-1.3-0.6-2.4-1.3-3.3-2.3c-0.9-1-1.6-2.2-2.1-3.5c-0.5-1.4-0.7-2.8-0.7-4.5
					c0-1.6,0.3-3.1,0.8-4.5c0.6-1.4,1.3-2.5,2.3-3.5c1-1,2.2-1.8,3.6-2.3c1.4-0.6,2.9-0.8,4.6-0.8c0.8,0,1.6,0.1,2.3,0.2
					c0.7,0.1,1.4,0.3,2,0.6c0.6,0.3,1.2,0.6,1.7,0.9c0.5,0.4,1,0.7,1.4,1.2l-1.7,2.3c-0.1,0.1-0.2,0.3-0.4,0.4
					c-0.2,0.1-0.4,0.2-0.6,0.2c-0.2,0-0.4,0-0.5-0.1c-0.2-0.1-0.3-0.2-0.5-0.3c-0.2-0.1-0.4-0.2-0.6-0.4c-0.2-0.1-0.5-0.3-0.8-0.4
					c-0.3-0.1-0.6-0.2-1-0.3c-0.4-0.1-0.9-0.1-1.4-0.1c-0.9,0-1.8,0.2-2.5,0.5c-0.8,0.3-1.4,0.8-2,1.4c-0.5,0.6-1,1.3-1.3,2.2
					c-0.3,0.9-0.5,1.8-0.5,2.9c0,1.1,0.2,2.1,0.5,3c0.3,0.9,0.7,1.6,1.2,2.2c0.5,0.6,1.1,1,1.8,1.4c0.7,0.3,1.5,0.5,2.3,0.5
					c0.5,0,0.9,0,1.3-0.1c0.4,0,0.7-0.1,1.1-0.2c0.3-0.1,0.6-0.3,0.9-0.4c0.3-0.2,0.6-0.4,0.9-0.7c0.1-0.1,0.2-0.2,0.4-0.2
					C76.4,30.9,76.5,30.9,76.7,30.9z"/>
				<path class="st0" d="M102.1,36.6h-3.9c-0.4,0-0.8-0.1-1.1-0.3c-0.3-0.2-0.5-0.5-0.6-0.8l-1.3-3.8h-8.3l-1.3,3.8
					c-0.1,0.3-0.3,0.5-0.6,0.8c-0.3,0.2-0.6,0.3-1.1,0.3h-4l8.5-21.9h5.2L102.1,36.6z M88,28.2h6l-2-6c-0.1-0.4-0.3-0.8-0.5-1.3
					c-0.2-0.5-0.3-1.1-0.5-1.7c-0.2,0.6-0.3,1.2-0.5,1.7c-0.2,0.5-0.3,1-0.5,1.4L88,28.2z"/>
				<path class="st0" d="M143.5,14.7v3.9h-9v5.1h6.9v3.8h-6.9v5.2h9v3.9h-14.1V14.7H143.5z"/>
				<path class="st0" d="M151.5,28.5v8.1h-5.1V14.7h7.1c1.6,0,2.9,0.2,4,0.5c1.1,0.3,2,0.8,2.7,1.4c0.7,0.6,1.2,1.3,1.5,2.1
					c0.3,0.8,0.5,1.7,0.5,2.6c0,0.7-0.1,1.4-0.3,2c-0.2,0.6-0.5,1.2-0.8,1.7c-0.4,0.5-0.8,1-1.4,1.4c-0.5,0.4-1.2,0.8-1.9,1
					c0.3,0.2,0.7,0.4,1,0.6c0.3,0.2,0.6,0.6,0.8,0.9l4.7,7.6h-4.6c-0.9,0-1.5-0.3-1.8-1l-3.6-6.4c-0.2-0.3-0.3-0.5-0.6-0.6
					c-0.2-0.1-0.5-0.2-0.9-0.2H151.5z M151.5,25h2c0.7,0,1.3-0.1,1.8-0.3c0.5-0.2,0.9-0.4,1.2-0.7c0.3-0.3,0.5-0.7,0.7-1.1
					c0.1-0.4,0.2-0.9,0.2-1.3c0-1-0.3-1.7-0.9-2.3c-0.6-0.5-1.6-0.8-2.9-0.8h-2V25z"/>
				<path class="st0" d="M201.1,14.7v3.9h-9v5.1h6.9v3.8h-6.9v5.2h9v3.9H187V14.7H201.1z"/>
				<path class="st0" d="M176.1,25.2V28c0,0.3,0.1,0.5,0.3,0.6c0.2,0.2,0.4,0.3,0.8,0.3h2.2c0,0.6,0,2.7,0,3.3
					c-3.6,1.5-8,0.5-9.3-3.5c-1.1-3.3-0.4-8.1,3.2-9.6c1.7-0.7,4.1-0.7,5.7,0.3c0.6,0.3,1.2,0.9,1.9,0.8c0.3-0.1,0.5-0.3,0.7-0.5
					c0,0,1.7-2.3,1.7-2.3c-4.1-4.1-11.7-3.7-15.8,0.2c-2.9,2.9-3.2,6.6-3.2,8c-0.1,6.3,4.2,11.3,10.7,11.2c3.2,0.1,6.3-0.4,8.9-2.3
					v-9.2H176.1z"/>
				<path class="st0" d="M124.5,14.7H124h-2c-0.2,0-0.4,0-0.6,0c-0.2,0-0.3,0-0.4,0.1c-0.1,0.1-0.2,0.1-0.4,0.2
					c-0.1,0.1-0.2,0.3-0.3,0.4l-4.3,8.5c-0.2,0.4-0.4,0.8-0.6,1.2c-0.2,0.4-0.3,0.7-0.5,1.1c0,0,0,0,0,0c0,0.1,0,0.1-0.1,0.2
					c0-0.1,0-0.1-0.1-0.2c0,0,0,0,0,0c-0.1-0.4-0.3-0.7-0.4-1.1c-0.2-0.4-0.4-0.8-0.6-1.2l-3.4-6.6l0,0l-0.4-0.7l0.4,0.7l-1-2
					c-0.1-0.2-0.2-0.3-0.3-0.4c-0.1-0.1-0.2-0.2-0.4-0.2c-0.1,0-0.3-0.1-0.4-0.1c-0.2,0-0.4,0-0.6,0h-2c-0.2,0-0.4,0-0.6,0h-1.3
					v21.9h0.8h1.1h2.6v-9.3V24c0-0.3,0-0.6,0-1c0-0.3-0.1-0.7-0.1-1l0.8,1.6c0,0,0,0,0,0l3.7,7.2c0,0,0,0,0,0
					c0.2,0.3,0.4,0.6,0.7,0.8c0.3,0.2,0.7,0.3,1,0.3h0.7c0.4,0,0.7-0.1,1-0.3c0.3-0.2,0.5-0.4,0.6-0.7c0,0,0-0.1,0.1-0.1l4.5-8.8
					c-0.1,0.7-0.1,1.4-0.1,2v3.2v9.3h2.6h1.1h0.8V14.7H124.5z"/>
			</g>
		</g>
		<g>
			<path class="st1" d="M51.8,25.6c0-3.8-0.8-7.5-2.3-10.7l-18.7,8.4c-2,0.9-2,3.7,0,4.6l18.8,8.4C51,33.1,51.8,29.4,51.8,25.6z"/>
			<g>
				<path class="st2" d="M25.6,37.9c-6.7,0-12.2-5.4-12.3-12.1c-0.1-6.8,5.5-12.4,12.3-12.5c2.7,0,5.2,0.9,7.2,2.3
					c1.8,1.3,4.1,1.5,6.1,0.6l7.7-3.5C42.3,5.8,34.5,1.1,25.7,1C11.8,1,0.8,12.3,1.1,26.1c0.3,13.4,11.2,24.1,24.6,24.1
					c8.9,0,16.7-4.7,21-11.8L38.9,35c-2-0.9-4.3-0.7-6.1,0.6C30.8,37.1,28.3,37.9,25.6,37.9z"/>
			</g>
		</g>
	</g>
</g>
</svg>
