<?xml version="1.0" encoding="utf-8"?>
<!-- Generator: Adobe Illustrator 25.0.0, SVG Export Plug-In . SVG Version: 6.00 Build 0)  -->
<svg version="1.1" id="Camada_1" xmlns="http://www.w3.org/2000/svg" xmlns:xlink="http://www.w3.org/1999/xlink" x="0px" y="0px"
	 viewBox="0 0 20 20" style="enable-background:new 0 0 20 20;" xml:space="preserve">
<style type="text/css">
	.st0{fill:#1E9FBE;}
</style>
<path class="st0" d="M18,14v2.4c0,0.9-0.7,1.6-1.6,1.6c-0.1,0-0.1,0-0.2,0c-2.5-0.3-4.9-1.1-6.9-2.5c-1.9-1.2-3.6-2.9-4.8-4.8
	C3.1,8.6,2.3,6.2,2,3.7C1.9,2.9,2.6,2.1,3.5,2c0,0,0.1,0,0.1,0H6c0.8,0,1.5,0.6,1.6,1.4c0.1,0.8,0.3,1.5,0.6,2.3
	c0.2,0.6,0.1,1.3-0.4,1.7l-1,1c1.1,2,2.8,3.7,4.8,4.8l1-1c0.4-0.4,1.1-0.6,1.7-0.4c0.7,0.3,1.5,0.5,2.3,0.6C17.4,12.5,18,13.2,18,14
	z"/>
</svg>
